<svg width="1920" height="1080" viewBox="0 0 1920 1080" fill="none" xmlns="http://www.w3.org/2000/svg">
<rect width="1920" height="1080" fill="#FEFCFB"/>
<path d="M221.355 459.488C209.324 459.488 199.431 456.012 191.678 449.061C184.191 441.842 180.448 433.019 180.448 422.591C180.448 411.897 184.191 403.073 191.678 396.122C199.431 388.903 209.324 385.293 221.355 385.293C233.12 385.293 242.745 388.903 250.231 396.122C257.985 403.073 261.862 411.897 261.862 422.591C261.862 433.019 257.985 441.842 250.231 449.061C242.745 456.012 233.12 459.488 221.355 459.488ZM255.445 482.749V706.535H186.865V482.749H255.445ZM441.501 480.342C467.703 480.342 488.558 488.898 504.065 506.01C519.84 522.854 527.727 546.115 527.727 575.793V706.535H459.548V585.017C459.548 570.044 455.671 558.414 447.918 550.125C440.164 541.837 429.737 537.693 416.636 537.693C403.535 537.693 393.108 541.837 385.354 550.125C377.6 558.414 373.723 570.044 373.723 585.017V706.535H305.144V482.749H373.723V512.427C380.675 502.534 390.033 494.78 401.797 489.166C413.561 483.284 426.796 480.342 441.501 480.342ZM700.11 648.383V706.535H665.218C640.353 706.535 620.969 700.519 607.066 688.488C593.163 676.189 586.211 656.27 586.211 628.731V539.698H558.94V482.749H586.211V428.206H654.791V482.749H699.709V539.698H654.791V629.533C654.791 636.217 656.395 641.03 659.604 643.971C662.812 646.912 668.159 648.383 675.646 648.383H700.11ZM949.262 591.032C949.262 597.449 948.861 604.133 948.059 611.085H792.853C793.922 624.988 798.334 635.683 806.087 643.169C814.108 650.388 823.867 653.997 835.364 653.997C852.475 653.997 864.373 646.778 871.057 632.341H944.049C940.306 647.046 933.488 660.281 923.595 672.045C913.97 683.809 901.805 693.033 887.1 699.717C872.394 706.401 855.951 709.743 837.77 709.743C815.846 709.743 796.328 705.065 779.217 695.707C762.105 686.349 748.737 672.98 739.112 655.602C729.487 638.223 724.674 617.903 724.674 594.642C724.674 571.381 729.353 551.061 738.711 533.682C748.336 516.303 761.704 502.935 778.816 493.577C795.927 484.219 815.579 479.54 837.77 479.54C859.427 479.54 878.677 484.086 895.522 493.176C912.366 502.267 925.467 515.234 934.825 532.078C944.45 548.922 949.262 568.574 949.262 591.032ZM879.078 572.985C879.078 561.221 875.068 551.863 867.047 544.912C859.026 537.96 849 534.484 836.968 534.484C825.471 534.484 815.712 537.826 807.691 544.511C799.938 551.195 795.125 560.686 793.254 572.985H879.078ZM1054.02 520.046C1062.04 507.748 1072.07 498.122 1084.1 491.171C1096.13 483.952 1109.5 480.342 1124.2 480.342V552.933H1105.36C1088.24 552.933 1075.41 556.676 1066.85 564.162C1058.3 571.381 1054.02 584.215 1054.02 602.663V706.535H985.441V482.749H1054.02V520.046ZM1293.34 480.342C1319.54 480.342 1340.4 488.898 1355.91 506.01C1371.68 522.854 1379.57 546.115 1379.57 575.793V706.535H1311.39V585.017C1311.39 570.044 1307.51 558.414 1299.76 550.125C1292 541.837 1281.58 537.693 1268.48 537.693C1255.38 537.693 1244.95 541.837 1237.19 550.125C1229.44 558.414 1225.56 570.044 1225.56 585.017V706.535H1156.98V482.749H1225.56V512.427C1232.52 502.534 1241.87 494.78 1253.64 489.166C1265.4 483.284 1278.64 480.342 1293.34 480.342Z" fill="#343A40"/>
<path d="M1495.8 424.998V706.535H1427.22V424.998H1495.8ZM1748.03 424.998V479.941H1673.44V706.535H1604.86V479.941H1530.26V424.998H1748.03Z" fill="#0077B6"/>
<circle cx="220.486" cy="424.284" r="41.7761" fill="#0077B6"/>
<circle cx="428.064" cy="335.13" r="26.6925" fill="#0077B6"/>
<path fill-rule="evenodd" clip-rule="evenodd" d="M517.59 431.681C515.215 435.169 512.372 438.313 509.142 441.027C504.47 444.977 499.016 447.895 493.134 449.592C487.252 451.29 481.073 451.728 475 450.878C460.817 449.014 456.469 446.769 435.536 429.235C420.465 416.52 411.156 417.485 386.275 434.524C378.311 439.93 367.301 445.848 361.889 447.667C341.557 454.534 317.8 444.716 308.684 425.478C298.759 404.493 304.177 385.494 326.639 362.758C346.237 343.213 347.815 332.376 334.22 309.97C312.894 275.253 323.461 240.613 358.314 231.16C373.545 226.907 394.227 235.167 402.836 248.504C416.813 270.555 412.174 292.069 388.408 316.954C366.484 339.918 365.46 350.601 383.488 371.68C403.924 395.575 416.42 397.504 440.295 381.326C456.62 370.173 468.721 364.728 479.729 363.714C490.37 362.672 511.022 371.699 515.341 379.217C523.978 394.624 525.194 398.514 524.483 410.334C523.943 417.448 520.95 427.031 517.59 431.681Z" fill="#343A40"/>
</svg>
