<svg width="557" height="539" viewBox="0 0 557 539" fill="none" xmlns="http://www.w3.org/2000/svg">
<g opacity="0.7">
<path d="M526.081 123.654C495.66 77.9222 437.829 50.7646 381.922 55.9918C326.015 61.219 274.565 98.4462 253.656 149.007C242.91 174.771 239.514 203.72 223.593 226.791C207.208 250.46 179.931 264.576 153.145 276.37C126.359 288.165 100.581 292.397 79.4603 312.191C58.3392 331.986 43.6394 370.46 56.0706 396.251C68.7671 422.467 100.847 432.948 123.998 451.256C147.149 469.564 161.902 496.497 185.557 514.195C207.407 530.54 235.573 537.744 263.182 537.691C290.791 537.638 317.988 530.739 343.779 521.2C423.819 491.628 499.215 436.596 531.136 359.568C590.227 216.974 526.081 123.654 526.081 123.654Z" fill="#0077B6"/>
</g>
<g opacity="0.3">
<path d="M526.081 123.654C495.66 77.9222 437.829 50.7646 381.922 55.9918C326.015 61.219 274.565 98.4462 253.656 149.007C242.91 174.771 239.514 203.72 223.593 226.791C207.208 250.46 179.931 264.576 153.145 276.37C126.359 288.165 100.581 292.397 79.4603 312.191C58.3392 331.986 43.6394 370.46 56.0706 396.251C68.7671 422.467 100.847 432.948 123.998 451.256C147.149 469.564 161.902 496.497 185.557 514.195C207.407 530.54 235.573 537.744 263.182 537.691C290.791 537.638 317.988 530.739 343.779 521.2C423.819 491.628 499.215 436.596 531.136 359.568C590.227 216.974 526.081 123.654 526.081 123.654Z" fill="white"/>
</g>
<path d="M74.0612 406.507C78.0256 405.122 82.2639 404.706 86.4219 405.294C90.5799 405.882 94.5367 407.457 97.9615 409.887C101.386 412.317 104.18 415.531 106.108 419.262C108.037 422.992 109.044 427.13 109.046 431.329V431.488C109.847 430.465 110.855 429.623 112.003 429.016C113.152 428.409 114.416 428.052 115.713 427.969C117.009 427.885 118.309 428.076 119.526 428.529C120.744 428.982 121.852 429.688 122.778 430.6C123.37 425.369 125.934 420.561 129.948 417.156C133.962 413.75 139.123 412.003 144.38 412.27C149.637 412.538 154.594 414.799 158.242 418.594C161.889 422.389 163.953 427.432 164.012 432.696C165.055 431.945 166.309 431.546 167.594 431.555C169.072 431.551 170.503 432.074 171.631 433.029C172.759 433.984 173.51 435.31 173.75 436.769H27.4542C27.4437 433.229 28.4514 429.761 30.3571 426.778C32.2628 423.796 34.9861 421.424 38.2023 419.946C41.4185 418.468 44.992 417.946 48.4966 418.442C52.0012 418.939 55.2891 420.432 57.9683 422.745C59.302 418.919 61.4992 415.45 64.3896 412.609" stroke="#263238" stroke-linecap="round" stroke-linejoin="round"/>
<path d="M137.358 162.964H283.601C283.611 159.424 282.603 155.956 280.698 152.974C278.792 149.991 276.069 147.619 272.853 146.141C269.636 144.663 266.063 144.141 262.558 144.637C259.054 145.134 255.766 146.628 253.087 148.941C251.054 143.069 247.007 138.108 241.663 134.937C236.32 131.766 230.026 130.59 223.898 131.619C217.771 132.648 212.206 135.815 208.191 140.557C204.177 145.3 201.972 151.311 201.969 157.524V157.684C201.168 156.66 200.161 155.818 199.012 155.211C197.863 154.605 196.599 154.248 195.302 154.164C194.006 154.08 192.706 154.271 191.489 154.724C190.271 155.178 189.163 155.883 188.237 156.795C187.645 151.564 185.081 146.757 181.067 143.351C177.053 139.945 171.892 138.198 166.635 138.466C161.378 138.733 156.421 140.994 152.773 144.789C149.126 148.584 147.062 153.627 147.004 158.891C145.961 158.141 144.706 157.741 143.421 157.75C141.959 157.768 140.55 158.3 139.441 159.254C138.333 160.207 137.595 161.521 137.358 162.964Z" stroke="#263238" stroke-miterlimit="10"/>
<path d="M177.16 72.5359C176.308 72.3322 175.474 72.0616 174.665 71.7266C173.166 71.1428 171.229 70.1478 169.226 69.1793C167.561 68.3488 165.766 67.8103 163.919 67.5873C162.5 67.4281 161.531 67.5873 161.398 67.2025C161.266 66.8178 162.102 66.1412 163.826 65.8758C166.047 65.5807 168.306 65.9695 170.301 66.9902C172.177 67.9551 173.884 69.2187 175.355 70.7315C176.51 71.7929 177.16 72.5359 177.16 72.5359Z" fill="#999999"/>
<path d="M185.955 65.4911C185.955 65.4911 185.239 65.7564 184.151 66.1942C183.063 66.632 181.71 67.2423 180.171 67.9057C177.146 69.2324 174.585 70.5591 174.161 70.0151C173.962 69.7365 174.36 69.0599 175.235 68.2241C176.39 67.1058 177.739 66.2067 179.215 65.5707C180.716 64.915 182.369 64.6855 183.992 64.9073C184.479 64.9705 184.959 65.0816 185.424 65.239L185.955 65.4911Z" fill="#999999"/>
<path d="M160.947 77.7897L160.456 77.4846C160.151 77.2856 159.686 77.0202 159.129 76.7284C157.713 75.9651 156.235 75.3216 154.711 74.8046C151.209 73.4779 148.078 73.8229 147.972 73.2922C147.972 73.0534 148.688 72.6554 150.041 72.4564C151.832 72.2423 153.647 72.442 155.348 73.0401C157.038 73.6395 158.549 74.6573 159.74 75.9987C160.097 76.4116 160.416 76.8556 160.695 77.3254L160.947 77.7897Z" fill="#999999"/>
<path d="M164.396 70.5322C164.396 70.5322 163.891 70.8373 163.135 71.2619L160.336 72.8937C158.213 74.0612 156.581 75.4145 156.183 75.043C155.998 74.8705 156.183 74.3133 156.714 73.5836C157.432 72.6378 158.335 71.8479 159.367 71.2619C160.436 70.6913 161.632 70.4035 162.843 70.4261C163.363 70.3984 163.884 70.434 164.396 70.5322Z" fill="#999999"/>
<path d="M158.041 66.4066C158.041 66.4066 156.86 65.982 155.043 65.2258C153.225 64.4696 150.771 63.3685 148.104 62.4928C145.838 61.7272 143.448 61.3941 141.059 61.5111C139.228 61.6172 138.061 61.9621 137.889 61.6437C137.716 61.3253 138.698 60.3966 140.754 59.7864C143.435 59.0982 146.26 59.2182 148.874 60.1313C151.381 61.0075 153.697 62.3588 155.693 64.1114C156.518 64.8319 157.302 65.5982 158.041 66.4066Z" fill="#999999"/>
<path d="M166.108 56.1646L165.431 56.3503L163.654 56.881C161.815 57.4867 160.013 58.1954 158.254 59.0037C154.181 60.8346 151.554 63.541 150.984 63.1032C150.732 62.9042 151.063 61.9092 152.111 60.6223C153.511 58.9573 155.272 57.6325 157.259 56.7483C159.235 55.8605 161.401 55.4819 163.561 55.6471C164.205 55.7027 164.844 55.8091 165.471 55.9656L166.108 56.1646Z" fill="#999999"/>
<path d="M371.853 37.1658H518.121C518.118 32.2666 516.169 27.5694 512.704 24.1064C509.238 20.6434 504.54 18.6981 499.64 18.6981C495.254 18.7025 491.016 20.2847 487.7 23.1558C485.695 17.2464 481.652 12.2436 476.295 9.04345C470.938 5.84329 464.616 4.65478 458.463 5.69076C452.309 6.72674 446.725 9.91956 442.711 14.6974C438.697 19.4752 436.515 25.526 436.556 31.7661V31.9253C435.755 30.9021 434.748 30.0595 433.599 29.4529C432.45 28.8464 431.186 28.4894 429.889 28.4055C428.593 28.3215 427.293 28.5125 426.076 28.9659C424.858 29.4194 423.75 30.1249 422.824 31.0364C422.233 25.8087 419.672 21.0027 415.663 17.5967C411.653 14.1906 406.496 12.4405 401.242 12.7025C395.987 12.9646 391.03 15.2191 387.379 19.0072C383.729 22.7953 381.659 27.8323 381.591 33.0928C380.551 32.3367 379.294 31.9365 378.008 31.9519C376.53 31.9481 375.099 32.4707 373.971 33.4261C372.843 34.3814 372.092 35.7072 371.853 37.1658Z" stroke="#263238" stroke-miterlimit="10"/>
<path d="M537.557 196.742V538.129H178.366V207.143C178.366 204.384 179.462 201.739 181.413 199.788C183.363 197.838 186.009 196.742 188.768 196.742H537.557Z" fill="#0077B6" stroke="#263238" stroke-linecap="round" stroke-linejoin="round"/>
<path d="M537.557 196.742V538.129H178.366V207.143C178.366 204.384 179.462 201.739 181.413 199.788C183.363 197.838 186.009 196.742 188.768 196.742H537.557Z" fill="#BFBFBF" stroke="#263238" stroke-linecap="round" stroke-linejoin="round"/>
<path d="M541.895 196.224H173.046V221.445H541.895V196.224Z" fill="white" stroke="#263238" stroke-linecap="round" stroke-linejoin="round"/>
<path d="M416.151 205.047H425.253Z" fill="white"/>
<path d="M416.151 205.047H425.253" stroke="#263238" stroke-miterlimit="10"/>
<path d="M408.363 205.047H401.836C401.842 205.073 401.842 205.1 401.836 205.126L408.363 205.047Z" fill="white" stroke="#263238" stroke-miterlimit="10"/>
<path d="M396.967 205.047H282.751C320.628 205.511 359.129 205.551 396.98 205.18C396.98 205.14 396.967 205.087 396.967 205.047Z" fill="white" stroke="#263238" stroke-miterlimit="10"/>
<path d="M515.786 433.929H536.217V426.022H515.786V433.929Z" fill="white" stroke="#263238" stroke-miterlimit="10"/>
<path d="M492.078 433.929H512.509V426.022H492.078V433.929Z" fill="white" stroke="#263238" stroke-miterlimit="10"/>
<path d="M503.713 423.833H524.145V415.926H503.713V423.833Z" fill="white" stroke="#263238" stroke-miterlimit="10"/>
<path d="M251.6 405.299H231.169V413.206H251.6V405.299Z" fill="white" stroke="#263238" stroke-miterlimit="10"/>
<path d="M275.321 405.299H254.89V413.206H275.321V405.299Z" fill="white" stroke="#263238" stroke-miterlimit="10"/>
<path d="M263.686 415.409H243.255V423.316H263.686V415.409Z" fill="white" stroke="#263238" stroke-miterlimit="10"/>
<path d="M297.332 445.233H210.857V538.129H297.332V445.233Z" fill="white" stroke="#263238" stroke-linecap="round" stroke-linejoin="round"/>
<path d="M291.706 450.434H216.482V538.129H291.706V450.434Z" fill="#263238" stroke="#999999" stroke-linecap="round" stroke-linejoin="round"/>
<path d="M241.371 455.647H221.219V498.566H241.371V455.647Z" fill="white" stroke="#263238" stroke-linecap="round" stroke-linejoin="round"/>
<path d="M264.455 455.647H244.303V498.566H264.455V455.647Z" fill="white" stroke="#263238" stroke-linecap="round" stroke-linejoin="round"/>
<path d="M287.54 455.647H267.388V498.566H287.54V455.647Z" fill="white" stroke="#263238" stroke-linecap="round" stroke-linejoin="round"/>
<path d="M287.607 504.483H221.285V538.129H287.607V504.483Z" fill="white" stroke="#263238" stroke-linecap="round" stroke-linejoin="round"/>
<path d="M256.974 503.754H253.073V538.129H256.974V503.754Z" fill="#263238"/>
<path d="M220.131 537.571H289.491" stroke="#263238" stroke-miterlimit="10"/>
<path d="M403.667 445.233H317.192V538.129H403.667V445.233Z" fill="white" stroke="#263238" stroke-linecap="round" stroke-linejoin="round"/>
<path d="M398.041 450.434H322.817V538.129H398.041V450.434Z" fill="#263238" stroke="#999999" stroke-linecap="round" stroke-linejoin="round"/>
<path d="M347.706 455.647H327.554V498.566H347.706V455.647Z" fill="white" stroke="#263238" stroke-linecap="round" stroke-linejoin="round"/>
<path d="M370.79 455.647H350.638V498.566H370.79V455.647Z" fill="white" stroke="#263238" stroke-linecap="round" stroke-linejoin="round"/>
<path d="M393.875 455.647H373.723V498.566H393.875V455.647Z" fill="white" stroke="#263238" stroke-linecap="round" stroke-linejoin="round"/>
<path d="M393.942 504.483H327.62V538.129H393.942V504.483Z" fill="white" stroke="#263238" stroke-linecap="round" stroke-linejoin="round"/>
<path d="M363.322 503.754H359.408V538.129H363.322V503.754Z" fill="#263238"/>
<path d="M326.466 537.571H395.826" stroke="#263238" stroke-miterlimit="10"/>
<path d="M510.001 445.233H423.526V538.129H510.001V445.233Z" fill="white" stroke="#263238" stroke-linecap="round" stroke-linejoin="round"/>
<path d="M504.376 450.434H429.152V538.129H504.376V450.434Z" fill="#263238" stroke="#999999" stroke-linecap="round" stroke-linejoin="round"/>
<path d="M454.041 455.647H433.889V498.566H454.041V455.647Z" fill="white" stroke="#263238" stroke-linecap="round" stroke-linejoin="round"/>
<path d="M477.126 455.647H456.974V498.566H477.126V455.647Z" fill="white" stroke="#263238" stroke-linecap="round" stroke-linejoin="round"/>
<path d="M500.211 455.647H480.059V498.566H500.211V455.647Z" fill="white" stroke="#263238" stroke-linecap="round" stroke-linejoin="round"/>
<path d="M500.291 504.483H433.969V538.129H500.291V504.483Z" fill="white" stroke="#263238" stroke-linecap="round" stroke-linejoin="round"/>
<path d="M469.656 503.754H465.756V538.129H469.656V503.754Z" fill="#263238"/>
<path d="M432.801 537.571H502.161" stroke="#263238" stroke-miterlimit="10"/>
<path d="M296.005 263.568H209.53V398.812H296.005V263.568Z" fill="white" stroke="#263238" stroke-linecap="round" stroke-linejoin="round"/>
<path d="M290.379 268.768H215.155V392.311H290.379V268.768Z" fill="#263238" stroke="#999999" stroke-linecap="round" stroke-linejoin="round"/>
<path d="M240.044 273.969H219.892V316.888H240.044V273.969Z" fill="white" stroke="#263238" stroke-linecap="round" stroke-linejoin="round"/>
<path d="M263.129 273.969H242.977V316.888H263.129V273.969Z" fill="white" stroke="#263238" stroke-linecap="round" stroke-linejoin="round"/>
<path d="M286.213 273.969H266.061V316.888H286.213V273.969Z" fill="white" stroke="#263238" stroke-linecap="round" stroke-linejoin="round"/>
<path d="M286.28 322.818H219.958V386.539H286.28V322.818Z" fill="white" stroke="#263238" stroke-linecap="round" stroke-linejoin="round"/>
<path d="M255.646 322.088H251.745V391.448H255.646V322.088Z" fill="#263238"/>
<path d="M218.804 355.906H288.164" stroke="#263238" stroke-miterlimit="10"/>
<path d="M298.699 392.683H206.705V398.188H298.699V392.683Z" fill="#999999" stroke="#263238" stroke-linecap="round" stroke-linejoin="round"/>
<path d="M402.34 263.568H315.865V398.812H402.34V263.568Z" fill="white" stroke="#263238" stroke-linecap="round" stroke-linejoin="round"/>
<path d="M396.714 268.768H321.49V392.311H396.714V268.768Z" fill="#263238" stroke="#999999" stroke-linecap="round" stroke-linejoin="round"/>
<path d="M346.379 273.969H326.227V316.888H346.379V273.969Z" fill="white" stroke="#263238" stroke-linecap="round" stroke-linejoin="round"/>
<path d="M369.464 273.969H349.312V316.888H369.464V273.969Z" fill="white" stroke="#263238" stroke-linecap="round" stroke-linejoin="round"/>
<path d="M392.548 273.969H372.396V316.888H392.548V273.969Z" fill="white" stroke="#263238" stroke-linecap="round" stroke-linejoin="round"/>
<path d="M392.616 322.818H326.294V386.539H392.616V322.818Z" fill="white" stroke="#263238" stroke-linecap="round" stroke-linejoin="round"/>
<path d="M361.982 322.088H358.081V391.448H361.982V322.088Z" fill="#263238"/>
<path d="M325.139 355.906H394.499" stroke="#263238" stroke-miterlimit="10"/>
<path d="M405.034 392.683H313.04V398.188H405.034V392.683Z" fill="#999999" stroke="#263238" stroke-linecap="round" stroke-linejoin="round"/>
<path d="M508.675 263.568H422.2V398.812H508.675V263.568Z" fill="white" stroke="#263238" stroke-linecap="round" stroke-linejoin="round"/>
<path d="M503.049 268.768H427.825V392.311H503.049V268.768Z" fill="#263238" stroke="#999999" stroke-linecap="round" stroke-linejoin="round"/>
<path d="M452.714 273.969H432.562V316.888H452.714V273.969Z" fill="white" stroke="#263238" stroke-linecap="round" stroke-linejoin="round"/>
<path d="M475.799 273.969H455.646V316.888H475.799V273.969Z" fill="white" stroke="#263238" stroke-linecap="round" stroke-linejoin="round"/>
<path d="M498.884 273.969H478.731V316.888H498.884V273.969Z" fill="white" stroke="#263238" stroke-linecap="round" stroke-linejoin="round"/>
<path d="M498.963 322.818H432.642V386.539H498.963V322.818Z" fill="white" stroke="#263238" stroke-linecap="round" stroke-linejoin="round"/>
<path d="M468.33 322.088H464.43V391.448H468.33V322.088Z" fill="#263238"/>
<path d="M431.475 355.906H500.835" stroke="#263238" stroke-miterlimit="10"/>
<path d="M511.368 392.683H419.374V398.188H511.368V392.683Z" fill="#999999" stroke="#263238" stroke-linecap="round" stroke-linejoin="round"/>
<path d="M410.486 235.243H390.055V243.15H410.486V235.243Z" fill="white" stroke="#263238" stroke-miterlimit="10"/>
<path d="M434.207 235.243H413.775V243.15H434.207V235.243Z" fill="white" stroke="#263238" stroke-miterlimit="10"/>
<path d="M422.572 245.339H402.141V253.246H422.572V245.339Z" fill="white" stroke="#263238" stroke-miterlimit="10"/>
<path d="M165.523 213.63L171.666 216.483L176.973 210.566L178.989 203.866L180.422 201.398C180.193 200.97 179.836 200.625 179.4 200.411C178.965 200.197 178.473 200.124 177.994 200.204C176.376 200.536 179.056 197.086 180.807 196.224C182.347 195.554 183.929 194.987 185.543 194.526C185.543 194.526 184.323 192.125 180.462 192.178C176.601 192.231 171.666 197.604 171.666 197.604C171.666 197.604 166.227 205.272 165.523 213.63Z" fill="white" stroke="#263238" stroke-linecap="round" stroke-linejoin="round"/>
<path d="M185.928 502.4C185.928 502.4 182.558 511.13 177.358 510.161C172.605 509.252 167.775 508.807 162.937 508.835C161.026 509.06 152.031 511.355 150.16 506.619C148.383 502.082 152.004 497.81 153.57 495.793C155.466 496.605 157.516 496.995 159.578 496.935C161.64 496.876 163.664 496.368 165.51 495.448L177.61 502.082C178.799 500.64 180.502 499.717 182.359 499.508C182.793 499.379 183.251 499.358 183.695 499.447C184.138 499.535 184.554 499.73 184.905 500.015C185.256 500.299 185.533 500.665 185.711 501.081C185.89 501.497 185.964 501.949 185.928 502.4Z" fill="#999999" stroke="#263238" stroke-linecap="round" stroke-linejoin="round"/>
<path d="M165.378 495.408L165.551 495.501C163.704 496.421 161.68 496.928 159.618 496.988C157.557 497.047 155.507 496.658 153.61 495.846L153.823 495.567C155.255 493.683 153.226 476.874 153.226 476.874V475.919C157.988 470.745 166.015 474.34 166.015 474.34L165.378 495.408Z" fill="white" stroke="#263238" stroke-linecap="round" stroke-linejoin="round"/>
<path d="M183.952 424.469C181.298 429.192 178.247 428.94 176.098 432.43C173.948 435.919 172.264 439.063 168.005 438.997C167.203 439.037 166.407 438.833 165.723 438.413C163.998 437.232 164.25 434.513 163.547 432.337C163.03 430.758 162.791 429.763 162.499 428.595C164.171 428.755 165.577 428.343 165.67 426.937C166.214 418.38 168.708 417.969 171.773 416.138L171.693 416.536C184.469 417.624 186.592 419.76 183.952 424.469Z" fill="#999999" stroke="#263238" stroke-linecap="round" stroke-linejoin="round"/>
<path d="M172.913 408.164C172.621 411.096 171.984 414.97 171.772 416.191C168.708 418.021 166.213 418.433 165.669 426.99C165.576 428.396 164.17 428.808 162.499 428.648C162.26 427.746 161.968 426.751 161.464 425.292C160.96 423.832 161.198 420.211 161.623 416.323C161.928 413.55 162.339 410.685 162.671 408.522C166.086 408.856 169.53 408.736 172.913 408.164Z" fill="white" stroke="#263238" stroke-linecap="round" stroke-linejoin="round"/>
<path d="M172.9 408.164C169.522 408.743 166.081 408.863 162.671 408.522C162.989 406.4 163.241 404.954 163.241 404.954C168.548 401.186 172.528 402.871 172.953 404.954C173.077 406.021 173.06 407.101 172.9 408.164Z" fill="white" stroke="#263238" stroke-linecap="round" stroke-linejoin="round"/>
<path d="M181.537 362.499C177.809 376.894 178.233 407.196 176.442 407.607C175.115 407.859 173.988 408.058 172.9 408.218C169.522 408.796 166.081 408.917 162.671 408.576C159.832 408.257 160.973 413.1 161.623 416.377C161.198 420.264 160.986 423.979 161.464 425.345C162.618 428.662 162.618 429.604 163.547 432.456C164.25 434.632 163.998 437.339 165.722 438.519C173.391 438.718 168.376 476.927 167.925 478.241C167.328 480.151 151.062 485.989 150.107 485.883C148.077 467.521 150.107 439.196 144.243 421.697C140.115 409.869 135.168 398.343 129.437 387.203C124.426 384.917 120.176 381.243 117.189 376.615C114.203 371.987 112.606 366.601 112.588 361.093C116.077 358.44 120.177 355.362 123.666 352.655C126.21 350.509 129.014 348.691 132.011 347.242C135.041 345.787 138.506 345.522 141.722 346.499C142.2 347.322 143.049 348.065 143.513 348.888C154.404 344.592 166.549 344.759 177.318 349.352C181.775 351.209 182.77 357.79 181.537 362.499Z" fill="#263238" stroke="#263238" stroke-linecap="round" stroke-linejoin="round"/>
<path d="M160.23 351.859C157.663 354.131 155.586 356.903 154.127 360.005C153.714 360.722 153.512 361.54 153.543 362.366C153.57 362.776 153.738 363.164 154.019 363.464C154.299 363.764 154.675 363.957 155.082 364.011" stroke="#7F7F7F" stroke-width="0.75" stroke-linecap="round" stroke-linejoin="round"/>
<path d="M170.95 367.289C168.384 376.598 164.877 385.622 160.482 394.221" stroke="#7F7F7F" stroke-width="0.75" stroke-linecap="round" stroke-linejoin="round"/>
<path d="M176.097 368.39C175.285 378.243 173.339 387.97 170.3 397.378" stroke="#7F7F7F" stroke-width="0.75" stroke-linecap="round" stroke-linejoin="round"/>
<path d="M176.495 360.562C176.495 362.008 176.416 363.454 176.336 364.914" stroke="#7F7F7F" stroke-width="0.75" stroke-linecap="round" stroke-linejoin="round"/>
<path d="M118.983 372.808C118.115 371.3 117.809 369.532 118.121 367.82" stroke="#7F7F7F" stroke-width="0.75" stroke-linecap="round" stroke-linejoin="round"/>
<path d="M156.236 372.237C145.318 376.708 132.051 380.994 121.065 375.382" stroke="#7F7F7F" stroke-width="0.75" stroke-linecap="round" stroke-linejoin="round"/>
<path d="M159.912 407.474C152.416 399.143 158.824 388.383 157.259 377.809C157.259 376.483 155.839 373.829 156.251 372.237" stroke="#7F7F7F" stroke-width="0.75" stroke-linecap="round" stroke-linejoin="round"/>
<path d="M159.314 360.43C161.465 358.056 163.893 355.949 166.545 354.154C166.753 353.974 166.995 353.837 167.258 353.753C167.52 353.669 167.796 353.638 168.071 353.663C168.88 353.862 169.106 354.99 168.681 355.733C168.181 356.404 167.486 356.905 166.691 357.166" stroke="#7F7F7F" stroke-width="0.75" stroke-linecap="round" stroke-linejoin="round"/>
<path d="M155.48 425.08C152.393 432.868 149.805 440.844 147.732 448.961" stroke="#7F7F7F" stroke-width="0.75" stroke-linecap="round" stroke-linejoin="round"/>
<path d="M159.208 416.337C158.492 417.916 157.802 419.494 157.125 421.087" stroke="#7F7F7F" stroke-width="0.75" stroke-linecap="round" stroke-linejoin="round"/>
<path d="M151.474 425.796L148.224 431.103" stroke="#7F7F7F" stroke-width="0.75" stroke-linecap="round" stroke-linejoin="round"/>
<path d="M163.07 457.796C160.889 465.982 157.893 473.929 154.128 481.518" stroke="#7F7F7F" stroke-width="0.75" stroke-linecap="round" stroke-linejoin="round"/>
<path d="M164.966 449.531C164.639 451.194 164.281 452.852 163.892 454.506" stroke="#7F7F7F" stroke-width="0.75" stroke-linecap="round" stroke-linejoin="round"/>
<path d="M135.103 383.647L148.847 374.692" stroke="#7F7F7F" stroke-width="0.75" stroke-linecap="round" stroke-linejoin="round"/>
<path d="M180.608 420.688C180.608 420.688 178.777 420.688 176.362 424.841C173.948 428.994 174.2 429.896 171.865 431.169C167.725 433.412 167.885 435.242 167.885 435.242" stroke="#263238" stroke-linecap="round" stroke-linejoin="round"/>
<path d="M155.733 373.604C158.452 367.417 163.287 362.402 169.372 359.461" stroke="#7F7F7F" stroke-width="0.75" stroke-linecap="round" stroke-linejoin="round"/>
<path d="M143.009 265.557C143.009 265.557 135.991 268.609 135.898 273.584C135.805 278.559 145.981 289.597 145.941 288.416C145.901 287.236 166.545 260.158 166.545 260.158L172.966 219.361L173.523 214.055C173.523 214.055 170.644 207.554 166.89 209.318C166.014 209.73 164.847 212.356 163.414 216.031C158.744 227.972 154.127 250.26 154.127 250.26L143.009 265.557Z" fill="white" stroke="#263238" stroke-linecap="round" stroke-linejoin="round"/>
<path d="M134.586 269.405C133.126 269.803 114.155 280.881 109.843 290.088C106.407 297.411 111.435 328.43 107.508 355.004C106.911 359.103 112.722 360.164 112.722 360.164L141.724 346.393L145.412 324.874L146.738 289.61C146.738 289.61 145.014 266.592 134.586 269.405Z" fill="#0077B6" stroke="#263238" stroke-linecap="round" stroke-linejoin="round"/>
<path d="M113.385 355.003C119.451 351.347 124.63 346.39 128.549 340.489" stroke="#263238" stroke-linecap="round" stroke-linejoin="round"/>
<path d="M116.874 343.541C129.452 328.819 138.702 311.554 143.992 292.927" stroke="#263238" stroke-linecap="round" stroke-linejoin="round"/>
<path d="M153.689 267.255C150.492 273.497 148.022 280.085 146.326 286.891" stroke="#263238" stroke-linecap="round" stroke-linejoin="round"/>
<path d="M164.33 235.786C162.776 242.149 161.637 248.606 160.92 255.116C160.058 253.975 159.182 252.848 158.267 251.707" stroke="#263238" stroke-linecap="round" stroke-linejoin="round"/>
<path d="M165.285 214.161C168.018 214.75 170.516 216.135 172.463 218.141" stroke="#263238" stroke-linecap="round" stroke-linejoin="round"/>
<path d="M112.469 286.744C111.328 287.302 104.575 298.95 116.727 313C124.155 321.549 132.695 329.063 142.12 335.341C142.12 335.341 160.177 321.584 169.795 302.585L164.555 293.298C164.555 293.298 142.253 315.68 142.346 316.423C142.664 319.01 125.802 280.244 112.469 286.744Z" fill="white" stroke="#263238" stroke-linecap="round" stroke-linejoin="round"/>
<path d="M160.31 297.332C160.201 299.524 160.84 301.688 162.123 303.469C163.405 305.25 165.254 306.543 167.368 307.136L165.855 306.977" stroke="#263238" stroke-linecap="round" stroke-linejoin="round"/>
<path d="M110.187 295.037C109.667 298.195 110.189 301.436 111.672 304.272C113.156 307.108 115.522 309.384 118.413 310.758" stroke="#263238" stroke-linecap="round" stroke-linejoin="round"/>
<path d="M163.733 293.737L170.061 286.135L172.847 283.083L173.763 280.43C173.763 280.43 176.907 279.992 175.846 282.38C174.784 284.768 173.948 286.493 173.948 286.493L177.929 285.087L183.753 286.321L183.142 288.868C183.142 288.868 185.464 289.412 185.225 290.831C184.987 292.251 185.809 293.485 185.133 294.811C184.456 296.138 180.861 295.607 180.861 295.607C180.861 295.607 182.346 297.107 180.768 298.075C179.189 299.044 168.761 302.493 168.761 302.493C168.761 302.493 163.68 300.463 163.733 293.737Z" fill="white" stroke="#263238" stroke-linecap="round" stroke-linejoin="round"/>
<path d="M112.588 360.337L112.456 362.446C112.431 362.935 112.467 363.425 112.562 363.906C112.634 364.152 112.762 364.379 112.936 364.569C113.11 364.758 113.326 364.905 113.566 364.997C113.806 365.09 114.064 365.125 114.32 365.102C114.577 365.078 114.824 364.996 115.043 364.861C121.225 361.093 140.9 349.179 144.23 348.304L141.696 346.393L112.588 360.337Z" fill="#0077B6" stroke="#263238" stroke-linecap="round" stroke-linejoin="round"/>
<path d="M138.366 323.747C139.608 320.28 141.659 317.16 144.35 314.646" stroke="#263238" stroke-linecap="round" stroke-linejoin="round"/>
<path d="M134.599 322.313C135.893 320.02 137.849 318.171 140.211 317.006" stroke="#263238" stroke-linecap="round" stroke-linejoin="round"/>
<path d="M120.112 282.725L116.994 270.572L109.684 263.236L104.377 253.299L109.923 244.688L116.251 239.952L119.966 240.257L122.619 242.539C122.619 242.539 129.929 248.284 130.115 249.995C130.301 251.707 130.566 253.286 130.566 253.286C132.472 254.352 134.252 255.629 135.873 257.093C137.2 258.752 134.042 258.632 134.798 261.073C135.554 263.514 138.341 268.37 135.86 269.962C133.379 271.554 131.986 272.324 132.914 274.778C133.696 277.714 134.294 280.696 134.705 283.707L120.112 282.725Z" fill="white" stroke="#263238" stroke-linecap="round" stroke-linejoin="round"/>
<path d="M118.254 268.901V269.179L117.71 273.398C113.869 271.815 110.245 269.751 106.924 267.256L106.34 266.791C109.606 261.03 113.666 255.755 118.4 251.123L118.108 252.251L117.245 255.674L117.643 260.98C117.119 260.729 116.538 260.62 115.958 260.664C115.378 260.709 114.82 260.905 114.34 261.233C112.801 262.4 112.748 264.921 114.22 266.871C114.661 267.528 115.264 268.06 115.97 268.416C116.677 268.772 117.463 268.939 118.254 268.901Z" fill="#999999" stroke="#263238" stroke-linecap="round" stroke-linejoin="round"/>
<path d="M116.754 249.478L118.452 251.003V251.123C113.718 255.755 109.658 261.029 106.392 266.791C99.0556 260.728 101.085 256.005 101.085 256.005C94.6376 244.993 108.528 241.637 108.528 241.637C107.718 241.447 106.999 240.982 106.494 240.322C105.988 239.661 105.727 238.846 105.755 238.015L111.871 237.06C110.134 234.95 111.871 232.018 111.871 232.018L115.998 235.998C114.976 233.08 118.333 230.612 118.651 230.36C118.505 230.599 117.43 232.642 121.397 238.811C125.603 245.444 116.754 249.478 116.754 249.478Z" fill="#263238" stroke="#263238" stroke-linecap="round" stroke-linejoin="round"/>
<path d="M128.071 254.081C128.362 254.625 128.336 255.209 128.004 255.408C127.672 255.607 127.182 255.288 126.89 254.744C126.598 254.2 126.624 253.617 126.89 253.418C127.155 253.219 127.805 253.537 128.071 254.081Z" fill="#263238"/>
<path d="M124.197 253.458C124.167 253.016 124.235 252.572 124.395 252.159C124.555 251.746 124.804 251.373 125.124 251.067C125.445 250.761 125.828 250.529 126.248 250.387C126.668 250.245 127.114 250.197 127.554 250.247" stroke="#263238" stroke-linecap="round" stroke-linejoin="round"/>
<path d="M104.841 252.967C105.21 251.015 106.16 249.219 107.566 247.816C108.972 246.412 110.769 245.465 112.721 245.099C119.673 243.68 111.939 238.466 111.939 238.466" stroke="#7F7F7F" stroke-width="0.75" stroke-linecap="round" stroke-linejoin="round"/>
<path d="M116.596 236.582C116.596 236.582 124.423 242.274 116.596 246.97" stroke="#7F7F7F" stroke-width="0.75" stroke-linecap="round" stroke-linejoin="round"/>
<path d="M134.97 270.387C134.97 270.387 130.605 272.47 128.045 271.713L132.781 274.791C132.781 274.791 131.03 271.7 134.97 270.387Z" fill="#263238" stroke="#263238" stroke-linecap="round" stroke-linejoin="round"/>
<path d="M118.877 278.373L117.046 280.934C117.046 280.934 129.198 288.894 136.774 289.345L136.336 283.879C130.2 283.262 124.257 281.388 118.877 278.373Z" fill="white" stroke="#263238" stroke-linecap="round" stroke-linejoin="round"/>
<path d="M133.683 277.431L138.764 279.209L136.336 283.839C136.336 283.839 135.115 285.604 133.683 277.431Z" fill="white" stroke="#263238" stroke-linecap="round" stroke-linejoin="round"/>
<path d="M138.764 279.209L141.072 284.211L136.336 283.879L138.764 279.209Z" fill="white" stroke="#263238" stroke-linecap="round" stroke-linejoin="round"/>
<path d="M117.71 268.423C119.031 268.682 120.394 268.628 121.69 268.264" stroke="#263238" stroke-linecap="round" stroke-linejoin="round"/>
<path d="M130.566 294.665C126.374 295.707 122.038 296.043 117.736 295.661C113.425 295.488 109.02 295.143 104.881 296.35C88.5887 301.073 84.6882 308.636 83.4942 310.467C81.4644 313.544 82.7778 317.617 81 320.868L95.7529 315.906C95.8745 313.279 96.6614 310.726 98.0399 308.487C99.4183 306.248 101.343 304.395 103.634 303.103C108.256 300.58 113.613 299.745 118.784 300.742C123.773 301.591 129.318 303.621 133.537 300.848C137.756 298.075 138.99 291.773 140.98 287.581C139.11 287.302 138.048 289.889 136.881 291.017C135.092 292.713 132.928 293.963 130.566 294.665Z" fill="#999999" stroke="#263238" stroke-linecap="round" stroke-linejoin="round"/>
<path d="M136.336 283.879L137.066 288.071L138.684 289.942L141.032 287.567L141.072 284.211L136.336 283.879Z" fill="#999999" stroke="#263238" stroke-linecap="round" stroke-linejoin="round"/>
<path d="M134.611 261.962C133.418 262.919 132.073 263.668 130.631 264.178C128.747 264.682 134.213 266.221 135.606 264.775L134.611 261.962Z" stroke="#263238" stroke-linecap="round" stroke-linejoin="round"/>
<path d="M101.775 273.226C100.919 273.95 99.9265 274.495 98.8564 274.831C97.9941 275.176 96.203 276.078 96.6276 277.272C97.2113 278.784 99.7453 277.139 99.9841 276.158" stroke="#263238" stroke-linecap="round" stroke-linejoin="round"/>
<path d="M86.4921 250.141C85.3872 250.348 84.2537 250.348 83.1488 250.141C82.2334 250.035 80.2301 250.009 80.0444 251.256C79.8586 252.861 82.8702 252.583 83.5469 251.84" stroke="#263238" stroke-linecap="round" stroke-linejoin="round"/>
<path d="M237.033 61.166L239.925 62.9438L237.166 64.5889C234.698 66.0616 232.801 69.2987 232.045 73.3319L231.461 76.4496L230.904 73.4513C230.161 69.4712 228.317 66.2738 225.902 64.7614L223.01 62.9438L225.73 61.312C228.144 59.8659 230.015 56.7216 230.797 52.7945L231.461 49.438L231.938 52.1975C232.655 56.3103 234.539 59.6271 237.033 61.166Z" fill="white" stroke="#263238" stroke-linecap="round" stroke-linejoin="round"/>
<path d="M345.159 12.7413L348.051 14.5191L345.292 16.1642C342.824 17.6368 340.927 20.874 340.171 24.9072L339.587 28.0249L339.016 25.0133C338.273 21.0332 336.429 17.8358 334.015 16.3367L331.136 14.5191L333.855 12.8872C336.27 11.4279 338.141 8.29686 338.923 4.36982L339.587 1L340.064 3.75954C340.781 7.88558 342.665 11.2156 345.159 12.7413Z" fill="white" stroke="#263238" stroke-linecap="round" stroke-linejoin="round"/>
<path d="M316.038 137.504C323.455 137.504 344.868 132.662 344.868 132.662H287.275C287.275 132.662 308.622 137.504 316.038 137.504Z" fill="#263238" stroke="#263238" stroke-linecap="round" stroke-linejoin="round"/>
<path d="M309.431 144.138H322.645V135.076H309.431V144.138Z" fill="#263238" stroke="#263238" stroke-linecap="round" stroke-linejoin="round"/>
<path d="M307.481 183.077H324.596V144.138H307.481V183.077Z" fill="#999999" stroke="#263238" stroke-linecap="round" stroke-linejoin="round"/>
<path d="M316.038 139.6H330.605L341.524 150.519" stroke="#263238" stroke-linecap="round" stroke-linejoin="round"/>
<path d="M287.275 188.516C287.274 188.73 287.322 188.942 287.414 189.136C287.506 189.33 287.64 189.501 287.807 189.636C287.974 189.771 288.169 189.867 288.378 189.916C288.586 189.966 288.804 189.968 289.013 189.922C294.254 188.768 309.975 185.464 316.105 185.464C322.234 185.464 337.955 188.768 343.196 189.922C343.405 189.965 343.622 189.961 343.829 189.911C344.037 189.86 344.231 189.764 344.397 189.63C344.564 189.495 344.698 189.326 344.791 189.133C344.883 188.94 344.932 188.73 344.934 188.516C344.935 187.655 344.64 186.821 344.099 186.152C343.558 185.483 342.803 185.02 341.962 184.841C335.819 183.514 321.809 180.662 316.105 180.662C310.4 180.662 296.377 183.527 290.234 184.841C289.396 185.025 288.646 185.49 288.108 186.158C287.57 186.826 287.277 187.658 287.275 188.516Z" fill="#263238" stroke="#263238" stroke-linecap="round" stroke-linejoin="round"/>
<path d="M339.933 190.546C339.93 191.522 340.217 192.478 340.758 193.291C341.299 194.104 342.068 194.739 342.97 195.115C343.872 195.49 344.864 195.59 345.823 195.401C346.781 195.212 347.662 194.743 348.353 194.053C349.045 193.364 349.516 192.484 349.707 191.527C349.899 190.569 349.802 189.576 349.429 188.673C349.056 187.771 348.423 186.999 347.611 186.456C346.799 185.913 345.845 185.624 344.868 185.624C343.561 185.624 342.308 186.142 341.383 187.064C340.458 187.987 339.936 189.239 339.933 190.546ZM342.201 190.546C342.201 190.021 342.357 189.508 342.648 189.071C342.94 188.635 343.354 188.295 343.839 188.094C344.324 187.893 344.858 187.841 345.372 187.943C345.887 188.046 346.36 188.298 346.731 188.669C347.102 189.04 347.355 189.513 347.457 190.028C347.559 190.543 347.507 191.076 347.306 191.561C347.105 192.046 346.765 192.46 346.329 192.752C345.892 193.043 345.379 193.199 344.855 193.199C344.151 193.199 343.476 192.919 342.978 192.422C342.481 191.924 342.201 191.249 342.201 190.546Z" fill="#0077B6" stroke="#263238" stroke-linecap="round" stroke-linejoin="round"/>
<path d="M311.156 190.546C311.154 191.522 311.441 192.478 311.982 193.291C312.522 194.104 313.292 194.739 314.194 195.115C315.095 195.49 316.088 195.59 317.046 195.401C318.004 195.212 318.885 194.743 319.577 194.053C320.268 193.364 320.74 192.484 320.931 191.527C321.123 190.569 321.026 189.576 320.652 188.673C320.279 187.771 319.647 186.999 318.835 186.456C318.023 185.913 317.068 185.624 316.092 185.624C314.785 185.624 313.532 186.142 312.606 187.064C311.681 187.987 311.16 189.239 311.156 190.546ZM313.425 190.546C313.425 190.021 313.581 189.508 313.872 189.071C314.164 188.635 314.578 188.295 315.063 188.094C315.548 187.893 316.081 187.841 316.596 187.943C317.111 188.046 317.583 188.298 317.955 188.669C318.326 189.04 318.578 189.513 318.681 190.028C318.783 190.543 318.731 191.076 318.53 191.561C318.329 192.046 317.989 192.46 317.552 192.752C317.116 193.043 316.603 193.199 316.078 193.199C315.725 193.206 315.375 193.143 315.047 193.012C314.719 192.882 314.42 192.688 314.168 192.441C313.916 192.194 313.715 191.899 313.579 191.573C313.442 191.248 313.372 190.899 313.372 190.546H313.425Z" fill="#0077B6" stroke="#263238" stroke-linecap="round" stroke-linejoin="round"/>
<path d="M282.87 190.546C282.86 191.524 283.14 192.484 283.676 193.302C284.212 194.121 284.979 194.761 285.88 195.143C286.781 195.525 287.775 195.63 288.736 195.446C289.696 195.261 290.581 194.796 291.276 194.108C291.972 193.419 292.447 192.54 292.642 191.581C292.837 190.623 292.742 189.628 292.37 188.723C291.998 187.818 291.366 187.044 290.553 186.499C289.74 185.954 288.784 185.664 287.806 185.664C286.506 185.663 285.259 186.176 284.335 187.09C283.411 188.004 282.884 189.246 282.87 190.546ZM285.139 190.546C285.139 190.021 285.295 189.508 285.586 189.072C285.878 188.635 286.292 188.295 286.777 188.094C287.262 187.894 287.795 187.841 288.31 187.943C288.825 188.046 289.298 188.299 289.669 188.67C290.04 189.041 290.293 189.513 290.395 190.028C290.497 190.543 290.445 191.076 290.244 191.561C290.043 192.046 289.703 192.461 289.267 192.752C288.83 193.044 288.317 193.199 287.792 193.199C287.089 193.199 286.414 192.92 285.916 192.422C285.419 191.924 285.139 191.25 285.139 190.546Z" fill="#0077B6" stroke="#263238" stroke-linecap="round" stroke-linejoin="round"/>
<path d="M344.324 150.519C344.324 151.062 344.163 151.593 343.861 152.045C343.559 152.497 343.13 152.849 342.628 153.056C342.126 153.264 341.574 153.319 341.042 153.213C340.509 153.107 340.019 152.845 339.635 152.461C339.251 152.077 338.99 151.588 338.884 151.055C338.778 150.522 338.832 149.97 339.04 149.468C339.248 148.966 339.6 148.538 340.052 148.236C340.503 147.934 341.034 147.773 341.577 147.773C342.306 147.773 343.004 148.062 343.519 148.577C344.034 149.092 344.324 149.791 344.324 150.519Z" fill="#0077B6" stroke="#263238" stroke-linecap="round" stroke-linejoin="round"/>
<path d="M311.726 117.404H274.446C273.328 117.406 272.221 117.187 271.188 116.761C270.154 116.334 269.215 115.708 268.424 114.918C267.633 114.128 267.006 113.19 266.577 112.158C266.149 111.125 265.929 110.018 265.929 108.9C265.929 106.641 266.826 104.475 268.423 102.878C270.021 101.28 272.187 100.383 274.446 100.383H311.726C313.983 100.386 316.146 101.285 317.741 102.882C319.335 104.479 320.231 106.644 320.231 108.9C320.231 111.156 319.335 113.319 317.74 114.914C316.145 116.508 313.982 117.404 311.726 117.404Z" fill="#263238" stroke="#999999" stroke-linecap="round" stroke-linejoin="round"/>
<path d="M319.567 117.404H282.274C280.018 117.404 277.855 116.508 276.26 114.914C274.665 113.319 273.77 111.156 273.77 108.9C273.77 106.644 274.665 104.479 276.26 102.882C277.854 101.285 280.017 100.386 282.274 100.383H319.567C321.824 100.386 323.987 101.285 325.581 102.882C327.176 104.479 328.071 106.644 328.071 108.9C328.071 111.156 327.175 113.319 325.581 114.914C323.986 116.508 321.823 117.404 319.567 117.404Z" fill="#263238" stroke="#999999" stroke-linecap="round" stroke-linejoin="round"/>
<path d="M347.282 118.944H352.695V95.6735H347.282V118.944Z" fill="#263238" stroke="#263238" stroke-linecap="round" stroke-linejoin="round"/>
<path d="M357.06 79.5142H312.933C308.229 79.5142 304.416 83.3246 304.416 88.025C304.416 92.7253 308.229 96.5357 312.933 96.5357H357.06C361.764 96.5357 365.577 92.7253 365.577 88.025C365.577 83.3246 361.764 79.5142 357.06 79.5142Z" fill="#263238" stroke="#999999" stroke-linecap="round" stroke-linejoin="round"/>
<path d="M316.197 137.504C323.6 137.504 345.027 132.662 345.027 132.662H287.368C287.368 132.662 308.781 137.504 316.197 137.504Z" fill="#263238" stroke="#263238" stroke-linecap="round" stroke-linejoin="round"/>
<path d="M267.203 29.312H315.136C316.472 29.3084 317.795 29.5809 319.021 30.1124C320.247 30.644 321.35 31.4231 322.26 32.401C323.171 33.3789 323.87 34.5343 324.313 35.795C324.756 37.0556 324.933 38.3941 324.835 39.7267L321.04 91.468C320.863 93.9118 319.766 96.1978 317.972 97.8664C316.178 99.5351 313.819 100.463 311.368 100.463H270.997C268.545 100.463 266.184 99.5358 264.388 97.8674C262.592 96.199 261.493 93.9129 261.312 91.468L257.518 39.7267C257.421 38.3957 257.6 37.0591 258.043 35.8002C258.486 34.5414 259.183 33.3874 260.092 32.4101C261.001 31.4329 262.101 30.6534 263.325 30.1204C264.548 29.5874 265.868 29.3122 267.203 29.312Z" fill="#263238" stroke="#999999" stroke-linecap="round" stroke-linejoin="round"/>
<path d="M266.048 39.7267L269.842 91.468C270.023 93.9129 271.122 96.199 272.918 97.8674C274.715 99.5358 277.076 100.463 279.527 100.463H311.368C313.818 100.463 316.178 99.5351 317.972 97.8664C319.766 96.1978 320.862 93.9118 321.04 91.468L324.834 39.7267C324.933 38.3941 324.755 37.0556 324.312 35.795C323.869 34.5343 323.17 33.3789 322.26 32.401C321.349 31.4231 320.246 30.644 319.021 30.1124C317.795 29.5809 316.472 29.3084 315.136 29.312H275.706C274.374 29.3158 273.057 29.5937 271.837 30.1283C270.616 30.663 269.519 31.443 268.613 32.4198C267.707 33.3967 267.012 34.5494 266.571 35.8065C266.129 37.0635 265.951 38.3979 266.048 39.7267Z" fill="#263238" stroke="#999999" stroke-linecap="round" stroke-linejoin="round"/>
<path d="M285.789 62.1739C287.357 62.1739 288.628 60.9028 288.628 59.3347C288.628 57.7667 287.357 56.4956 285.789 56.4956C284.221 56.4956 282.95 57.7667 282.95 59.3347C282.95 60.9028 284.221 62.1739 285.789 62.1739Z" fill="#263238" stroke="#999999" stroke-linecap="round" stroke-linejoin="round"/>
<path d="M308.49 62.1739C310.058 62.1739 311.329 60.9028 311.329 59.3347C311.329 57.7667 310.058 56.4956 308.49 56.4956C306.921 56.4956 305.65 57.7667 305.65 59.3347C305.65 60.9028 306.921 62.1739 308.49 62.1739Z" fill="#263238" stroke="#999999" stroke-linecap="round" stroke-linejoin="round"/>
<path d="M290.898 78.201C290.898 78.7625 290.732 79.3114 290.42 79.7783C290.108 80.2452 289.664 80.6091 289.145 80.824C288.627 81.0389 288.056 81.0951 287.505 80.9855C286.954 80.876 286.448 80.6056 286.051 80.2085C285.654 79.8115 285.384 79.3056 285.274 78.7548C285.165 78.2041 285.221 77.6333 285.436 77.1145C285.651 76.5957 286.015 76.1523 286.482 75.8403C286.948 75.5283 287.497 75.3618 288.059 75.3618C288.812 75.3618 289.534 75.6609 290.066 76.1934C290.599 76.7258 290.898 77.448 290.898 78.201Z" fill="#263238" stroke="#999999" stroke-linecap="round" stroke-linejoin="round"/>
<path d="M308.104 81.0928C309.672 81.0928 310.943 79.8217 310.943 78.2537C310.943 76.6857 309.672 75.4146 308.104 75.4146C306.536 75.4146 305.265 76.6857 305.265 78.2537C305.265 79.8217 306.536 81.0928 308.104 81.0928Z" fill="#263238" stroke="#999999" stroke-linecap="round" stroke-linejoin="round"/>
<path d="M301.617 114.805H359.156C363.136 114.805 366.294 119.276 366.294 124.808V126.135C366.294 131.667 363.097 136.138 359.156 136.138H301.617V114.805Z" fill="#263238" stroke="#999999" stroke-linecap="round" stroke-linejoin="round"/>
<path d="M273.69 136.125H304.88C309.079 136.125 312.482 132.721 312.482 128.522V122.406C312.482 118.208 309.079 114.804 304.88 114.804H273.69C269.491 114.804 266.088 118.208 266.088 122.406V128.522C266.088 132.721 269.491 136.125 273.69 136.125Z" fill="#263238" stroke="#999999" stroke-linecap="round" stroke-linejoin="round"/>
<path d="M294.452 118.944H299.865V95.6735H294.452V118.944Z" fill="#999999" stroke="#263238" stroke-linecap="round" stroke-linejoin="round"/>
<path d="M304.23 79.5142H260.104C255.4 79.5142 251.587 83.3246 251.587 88.025C251.587 92.7253 255.4 96.5357 260.104 96.5357H304.23C308.934 96.5357 312.748 92.7253 312.748 88.025C312.748 83.3246 308.934 79.5142 304.23 79.5142Z" fill="#263238" stroke="#999999" stroke-linecap="round" stroke-linejoin="round"/>
<path d="M270.546 27.1625L270.028 28.9138H270.201C273.554 29.3115 276.72 30.6685 279.321 32.8218C281.921 34.9751 283.845 37.8333 284.861 41.0531C285.313 42.5544 286.057 43.952 287.05 45.1659C290.831 49.4113 305.411 46.665 305.411 46.665C305.411 46.665 313.106 44.0116 307.229 26.7645L307.149 26.5522C306.454 24.1874 305.028 22.103 303.077 20.5971C301.125 19.0912 298.748 18.2408 296.284 18.1675H281.504C278.951 18.2805 276.503 19.2181 274.527 20.8398C272.551 22.4615 271.154 24.68 270.546 27.1625Z" fill="#263238" stroke="#999999" stroke-linecap="round" stroke-linejoin="round"/>
<path d="M280.071 22.0415C282.839 24.4629 285.077 27.4295 286.645 30.7556C288.214 34.0817 289.078 37.6958 289.186 41.3715" stroke="#999999" stroke-linecap="round" stroke-linejoin="round"/>
<path d="M318.678 114.022L318.267 115.017H318.399C323.852 115.428 328.257 118.174 329.995 121.889C330.386 122.784 330.976 123.577 331.719 124.211C334.718 126.612 346.247 125.06 346.247 125.06C346.247 125.06 353.491 123.733 348.9 113.982C348.609 113.423 348.205 112.931 347.713 112.536C347.222 112.142 346.653 111.854 346.045 111.691C345.436 111.527 344.8 111.492 344.177 111.587C343.554 111.683 342.958 111.906 342.426 112.244C339.918 113.65 335.368 112.761 330.605 111.78C320.628 109.776 318.081 112.231 318.678 114.022Z" fill="#263238" stroke="#999999" stroke-linecap="round" stroke-linejoin="round"/>
<path d="M327.143 112.576C331.534 115.295 334.214 119.368 334.36 123.508" stroke="#263238" stroke-linecap="round" stroke-linejoin="round"/>
<path d="M295.395 81.8226C296.708 81.8096 297.996 82.1869 299.095 82.9066C300.193 83.6263 301.054 84.656 301.567 85.8652C302.08 87.0745 302.222 88.4088 301.976 89.699C301.73 90.9893 301.106 92.1774 300.184 93.1128" stroke="#999999" stroke-linecap="round" stroke-linejoin="round"/>
<path d="M349.71 81.823C351.022 81.8127 352.308 82.1918 353.405 82.9126C354.502 83.6333 355.36 84.6631 355.871 85.8718C356.383 87.0805 356.524 88.4137 356.277 89.7027C356.031 90.9917 355.407 92.1786 354.486 93.1132" fill="#263238"/>
<path d="M349.71 81.823C351.022 81.8127 352.308 82.1918 353.405 82.9126C354.502 83.6333 355.36 84.6631 355.871 85.8718C356.383 87.0805 356.524 88.4137 356.277 89.7027C356.031 90.9917 355.407 92.1786 354.486 93.1132" stroke="#999999" stroke-linecap="round" stroke-linejoin="round"/>
<path d="M372.078 87.9653L457.345 87.9653V74.8443L372.078 74.8443V87.9653Z" fill="white" stroke="#263238" stroke-linecap="round" stroke-linejoin="round"/>
<path d="M341.723 87.9653H377.173V74.8443H341.723V87.9653Z" fill="white" stroke="#263238" stroke-linecap="round" stroke-linejoin="round"/>
<path d="M375.621 74.8442L460.092 74.8442V67.428L375.621 67.428V74.8442Z" fill="#999999" stroke="#263238" stroke-linecap="round" stroke-linejoin="round"/>
<path d="M338.977 74.8442H375.62V67.428H338.977V74.8442Z" fill="#999999" stroke="#263238" stroke-linecap="round" stroke-linejoin="round"/>
<path d="M450.142 195.481H452.914L453.896 87.9785H450.142V195.481Z" fill="#999999" stroke="#263238" stroke-linecap="round" stroke-linejoin="round"/>
<path d="M447.382 195.481H450.141V87.9785H446.387L447.382 195.481Z" fill="#858585" stroke="#263238" stroke-linecap="round" stroke-linejoin="round"/>
<path d="M413.604 195.481H416.376L417.358 87.9785H413.604V195.481Z" fill="#999999" stroke="#263238" stroke-linecap="round" stroke-linejoin="round"/>
<path d="M410.845 195.481H413.604V87.9785H409.85L410.845 195.481Z" fill="#858585" stroke="#263238" stroke-linecap="round" stroke-linejoin="round"/>
<path d="M381.246 195.481H384.019L385.001 87.9785H381.246V195.481Z" fill="#999999" stroke="#263238" stroke-linecap="round" stroke-linejoin="round"/>
<path d="M378.485 195.481H381.245V87.9785H377.49L378.485 195.481Z" fill="#858585" stroke="#263238" stroke-linecap="round" stroke-linejoin="round"/>
<path d="M350.016 195.481H352.788L353.77 87.9785H350.016V195.481Z" fill="#999999" stroke="#263238" stroke-linecap="round" stroke-linejoin="round"/>
<path d="M347.256 195.481H350.015V87.9785H346.261L347.256 195.481Z" fill="#858585" stroke="#263238" stroke-linecap="round" stroke-linejoin="round"/>
<path d="M385 87.9785L384.43 190.479H449.372L450.141 87.9785H385Z" fill="#999999" stroke="#263238" stroke-linecap="round" stroke-linejoin="round"/>
<path d="M395.507 182.055C402.706 183.241 409.997 183.77 417.292 183.634C424.575 183.783 431.857 183.277 439.05 182.121C439.226 182.611 439.496 183.062 439.846 183.448C441.252 185.067 444.953 183.448 444.953 183.448C444.953 183.448 446.373 179.242 444.953 177.637C444.648 177.292 444.118 177.252 443.945 176.841C442.446 173.392 445.126 166.825 445.139 159.727C445.152 152.629 442.486 146.075 443.985 142.626C444.595 141.299 446.068 140.569 446.068 138.924C446.068 137.279 444.595 136.602 443.998 135.223C442.512 131.773 445.179 125.206 445.192 118.121C445.205 111.037 442.539 104.456 444.051 101.007C444.224 100.596 444.754 100.569 445.06 100.224C446.479 98.6188 445.06 94.3999 445.06 94.3999C445.06 94.3999 441.358 92.7946 439.952 94.3999C439.594 94.7979 439.567 95.5011 439.142 95.7266C435.268 98.1279 426.698 94.1611 417.385 94.1478C408.071 94.1346 399.487 98.128 395.627 95.6603C395.215 95.4082 395.189 94.6918 394.831 94.3336C393.424 92.7283 389.723 94.3336 389.723 94.3336C389.723 94.3336 388.303 98.5392 389.723 100.158C390.028 100.503 390.559 100.543 390.731 100.954C392.23 104.39 389.55 110.957 389.537 118.055C389.524 125.153 392.19 131.707 390.678 135.156C390.081 136.483 388.608 137.213 388.608 138.858C388.608 140.503 390.081 141.193 390.678 142.572C392.164 146.009 389.497 152.576 389.484 159.66C389.471 166.745 392.137 173.325 390.625 176.775C390.439 177.186 389.909 177.226 389.617 177.571C388.197 179.163 389.617 183.382 389.617 183.382C389.617 183.382 393.318 184.987 394.724 183.382C395.067 182.993 395.332 182.543 395.507 182.055Z" stroke="#263238" stroke-miterlimit="10"/>
<path d="M350.016 87.9785L349.79 190.546H378.128L377.492 87.9785H350.016Z" fill="#999999" stroke="#263238" stroke-linecap="round" stroke-linejoin="round"/>
<path d="M455.288 54.8242H441.57V65.7297H455.288V54.8242Z" fill="#263238" stroke="white" stroke-linecap="round" stroke-linejoin="round"/>
<path d="M450.46 42.8843C450.56 43.1237 450.694 43.3471 450.858 43.5476C450.606 43.4548 450.46 43.2292 450.46 42.8843Z" fill="#0077B6"/>
<path d="M459.747 20.4495C458.589 24.6226 457.737 28.875 457.2 33.1725C456.637 37.4224 455.288 41.5301 453.22 45.2853C452.092 47.4213 450.487 45.8558 449.386 48.4694C449.386 48.4694 449.253 48.8144 449.187 49.0266C449.179 49.0883 449.179 49.1507 449.187 49.2124C449.279 48.3235 449.439 46.3732 448.908 45.6966C447.303 43.6137 448.762 35.9586 453.18 28.4495C456.47 22.8375 459.575 20.4893 459.813 20.4097L459.747 20.4495Z" fill="#0077B6" stroke="#263238" stroke-linecap="round" stroke-linejoin="round"/>
<path d="M449.319 48.5093C449.213 48.894 449.12 49.2788 449.014 49.6635C449.014 49.6635 449.014 49.4512 449.014 49.2522C449.006 49.1905 449.006 49.1282 449.014 49.0665C449.155 48.8542 449.257 48.6685 449.319 48.5093Z" fill="#999999" stroke="#263238" stroke-miterlimit="10"/>
<path d="M450.367 54.8244H446.48C445.776 54.8244 445.101 54.5448 444.603 54.0472C444.106 53.5496 443.826 52.8747 443.826 52.171C443.826 51.4673 444.106 50.7924 444.603 50.2947C445.101 49.7971 445.776 49.5176 446.48 49.5176H450.367C451.071 49.5176 451.745 49.7971 452.243 50.2947C452.741 50.7924 453.02 51.4673 453.02 52.171C453.02 52.8747 452.741 53.5496 452.243 54.0472C451.745 54.5448 451.071 54.8244 450.367 54.8244Z" fill="#263238" stroke="#999999" stroke-linecap="round" stroke-linejoin="round"/>
<path d="M455.182 57.4512H447.143V61.8691H455.182V57.4512Z" fill="white"/>
<path d="M378.539 66.0214H426.3L431.634 51.5205H383.872L378.539 66.0214Z" fill="#263238" stroke="#263238" stroke-linecap="round" stroke-linejoin="round"/>
<path d="M436.993 65.9555H389.232L383.898 51.2954H431.66L436.993 65.9555Z" fill="#263238" stroke="#999999" stroke-linecap="round" stroke-linejoin="round"/>
<path d="M405.484 60.2109L405.856 61.2324C406.294 62.453 405.949 63.1429 404.768 63.1429C404.203 63.1315 403.656 62.9401 403.208 62.5965C402.759 62.2529 402.432 61.775 402.274 61.2324L400.828 57.2523C400.39 56.0318 400.748 55.3286 401.929 55.3286C402.493 55.3436 403.038 55.5382 403.484 55.8842C403.93 56.2302 404.255 56.7094 404.41 57.2523L404.688 57.982H403.547L403.255 57.1727C403.056 56.6288 402.738 56.4165 402.353 56.4165C401.968 56.4165 401.809 56.6288 402.008 57.1727L403.507 61.2855C403.706 61.8294 404.012 62.0284 404.396 62.0284C404.781 62.0284 404.954 61.8294 404.755 61.2855L404.357 60.1976L405.484 60.2109Z" fill="white"/>
<path d="M408.721 63.0631H407.527L404.741 55.4346H405.949L407.143 58.6983H408.469L407.275 55.4346H408.496L411.269 63.0631H410.048L408.854 59.7862H407.527L408.721 63.0631Z" fill="white"/>
<path d="M409.677 55.4346H410.884L413.657 63.0631H412.45L409.677 55.4346Z" fill="white"/>
<path d="M414.4 58.6452H416.045L416.443 59.7331H414.798L415.607 61.9752H417.677L418.075 63.0631H414.798L411.985 55.4346H415.262L415.647 56.5225H413.577L414.4 58.6452Z" fill="white"/>
<path d="M418.738 58.8177H420.291L420.689 59.9056H419.136L420.291 63.0631H419.083L416.311 55.4346H419.481L419.879 56.5225H417.903L418.738 58.8177Z" fill="white"/>
<path d="M136.827 538.129H181.245H213.736H219.361H224.164H255.952H259.852H290.486H294.585H300.21H320.071H325.696H330.499H362.287H366.201H396.821H400.92H406.546H426.406H432.031H436.847H468.635H472.536H496.589H502.121H503.169H507.255H512.881H540.436H549.67" stroke="#263238" stroke-linecap="round" stroke-linejoin="round"/>
<path d="M121.703 538.129H128.788" stroke="#263238" stroke-linecap="round" stroke-linejoin="round"/>
<path d="M24.2842 538.129H114.606" stroke="#263238" stroke-linecap="round" stroke-linejoin="round"/>
<path d="M1 538.129H17.199" stroke="#263238" stroke-linecap="round" stroke-linejoin="round"/>
</svg>
