<svg width="1596" height="656" viewBox="0 0 1596 656" fill="none" xmlns="http://www.w3.org/2000/svg">
<path d="M59.3555 247.488C47.324 247.488 37.4314 244.012 29.6777 237.06C22.1915 229.842 18.4483 221.018 18.4483 210.591C18.4483 199.896 22.1915 191.073 29.6777 184.122C37.4314 176.903 47.324 173.293 59.3555 173.293C71.1196 173.293 80.7449 176.903 88.2311 184.122C95.9848 191.073 99.8616 199.896 99.8616 210.591C99.8616 221.018 95.9848 229.842 88.2311 237.06C80.7449 244.012 71.1196 247.488 59.3555 247.488ZM93.4448 270.749V494.535H24.8651V270.749H93.4448ZM279.501 268.342C305.703 268.342 326.558 276.898 342.065 294.01C357.84 310.854 365.727 334.115 365.727 363.792V494.535H297.548V373.017C297.548 358.044 293.671 346.414 285.918 338.125C278.164 329.837 267.737 325.693 254.636 325.693C241.535 325.693 231.108 329.837 223.354 338.125C215.6 346.414 211.723 358.044 211.723 373.017V494.535H143.144V270.749H211.723V300.426C218.675 290.534 228.033 282.78 239.797 277.165C251.561 271.283 264.796 268.342 279.501 268.342ZM538.11 436.383V494.535H503.218C478.353 494.535 458.969 488.519 445.066 476.488C431.163 464.189 424.211 444.27 424.211 416.731V327.698H396.94V270.749H424.211V216.206H492.791V270.749H537.709V327.698H492.791V417.533C492.791 424.217 494.395 429.03 497.604 431.971C500.812 434.912 506.159 436.383 513.646 436.383H538.11ZM787.262 379.032C787.262 385.449 786.861 392.133 786.059 399.085H630.853C631.922 412.988 636.334 423.683 644.087 431.169C652.108 438.388 661.867 441.997 673.364 441.997C690.475 441.997 702.373 434.778 709.057 420.341H782.049C778.306 435.046 771.488 448.28 761.595 460.045C751.97 471.809 739.805 481.033 725.1 487.717C710.394 494.401 693.951 497.743 675.77 497.743C653.846 497.743 634.328 493.064 617.217 483.707C600.105 474.349 586.737 460.98 577.112 443.601C567.487 426.223 562.674 405.903 562.674 382.642C562.674 359.381 567.353 339.061 576.711 321.682C586.336 304.303 599.704 290.935 616.816 281.577C633.927 272.219 653.579 267.54 675.77 267.54C697.427 267.54 716.677 272.086 733.522 281.176C750.366 290.266 763.467 303.234 772.825 320.078C782.45 336.922 787.262 356.574 787.262 379.032ZM717.078 360.985C717.078 349.221 713.068 339.863 705.047 332.912C697.026 325.96 687 322.484 674.968 322.484C663.471 322.484 653.712 325.826 645.691 332.51C637.938 339.195 633.125 348.686 631.254 360.985H717.078ZM892.021 308.046C900.042 295.747 910.068 286.122 922.1 279.171C934.131 271.952 947.5 268.342 962.205 268.342V340.933H943.356C926.244 340.933 913.41 344.676 904.855 352.162C896.299 359.381 892.021 372.214 892.021 390.663V494.535H823.441V270.749H892.021V308.046ZM1131.34 268.342C1157.54 268.342 1178.4 276.898 1193.91 294.01C1209.68 310.854 1217.57 334.115 1217.57 363.792V494.535H1149.39V373.017C1149.39 358.044 1145.51 346.414 1137.76 338.125C1130 329.837 1119.58 325.693 1106.48 325.693C1093.38 325.693 1082.95 329.837 1075.19 338.125C1067.44 346.414 1063.56 358.044 1063.56 373.017V494.535H994.985V270.749H1063.56V300.426C1070.52 290.534 1079.87 282.78 1091.64 277.165C1103.4 271.283 1116.64 268.342 1131.34 268.342Z" fill="#343A40"/>
<path d="M1333.8 212.997V494.535H1265.22V212.997H1333.8ZM1586.03 212.997V267.941H1511.44V494.535H1442.86V267.941H1368.26V212.997H1586.03Z" fill="#0077B6"/>
<circle cx="58.4861" cy="212.284" r="41.7761" fill="#0077B6"/>
<circle cx="266.064" cy="123.13" r="26.6925" fill="#0077B6"/>
<path fill-rule="evenodd" clip-rule="evenodd" d="M355.59 219.681C353.215 223.169 350.372 226.313 347.142 229.026C342.47 232.976 337.016 235.895 331.134 237.592C325.252 239.289 319.073 239.728 313 238.878C298.817 237.013 294.469 234.768 273.536 217.235C258.465 204.52 249.156 205.485 224.275 222.523C216.311 227.93 205.301 233.848 199.889 235.667C179.557 242.534 155.8 232.715 146.684 213.477C136.759 192.492 142.177 173.494 164.639 150.757C184.237 131.213 185.815 120.375 172.22 97.9698C150.894 63.2527 161.461 28.6123 196.314 19.16C211.545 14.9065 232.227 23.1666 240.836 36.5037C254.813 58.5551 250.174 80.0688 226.408 104.953C204.484 127.918 203.46 138.601 221.488 159.679C241.924 183.575 254.42 185.504 278.295 169.325C294.62 158.173 306.721 152.728 317.729 151.714C328.37 150.671 349.022 159.699 353.341 167.217C361.978 182.624 363.194 186.514 362.483 198.333C361.943 205.448 358.95 215.031 355.59 219.681Z" fill="#343A40"/>
</svg>
