<svg width="35" height="27" viewBox="0 0 35 27" fill="none" xmlns="http://www.w3.org/2000/svg">
<ellipse cx="4.49664" cy="17.4246" rx="3.92633" ry="3.42899" fill="#0077B6"/>
<ellipse cx="24.0058" cy="10.1065" rx="2.50869" ry="2.19092" fill="#0077B6"/>
<path fill-rule="evenodd" clip-rule="evenodd" d="M32.4213 18.0316C32.1981 18.3179 31.9309 18.576 31.6273 18.7987C31.1882 19.1229 30.6756 19.3625 30.1228 19.5018C29.5699 19.6411 28.9893 19.6771 28.4185 19.6073C27.0855 19.4543 26.6768 19.27 24.7094 17.8309C23.293 16.7872 22.4181 16.8664 20.0797 18.2649C19.3312 18.7087 18.2964 19.1945 17.7878 19.3437C15.8768 19.9074 13.6441 19.1015 12.7873 17.5225C11.8545 15.8 12.3636 14.2406 14.4748 12.3744C16.3167 10.7702 16.465 9.88062 15.1873 8.04156C13.183 5.19197 14.1761 2.34869 17.4517 1.57284C18.8832 1.22371 20.827 1.9017 21.6361 2.99641C22.9498 4.8064 22.5138 6.57224 20.2801 8.61477C18.2196 10.4997 18.1234 11.3765 19.8177 13.1067C21.7384 15.068 22.9129 15.2264 25.1568 13.8984C26.691 12.9831 27.8283 12.5361 28.863 12.4529C29.863 12.3673 31.804 13.1083 32.2099 13.7254C33.0217 14.99 33.1359 15.3093 33.0691 16.2794C33.0184 16.8634 32.7371 17.65 32.4213 18.0316Z" fill="white"/>
</svg>
